<svg width="640" height="480" xmlns="http://www.w3.org/2000/svg">
 <!-- Created with Method Draw - http://github.com/duopixel/Method-Draw/ -->

 <g>
  <title>background</title>
  <rect fill="none" id="canvas_background" height="482" width="642" y="-1" x="-1"/>
  <g display="none" overflow="visible" y="0" x="0" height="100%" width="100%" id="canvasGrid">
   <rect fill="url(#gridpattern)" stroke-width="0" y="0" x="0" height="100%" width="100%"/>
  </g>
 </g>
 <g>
  <title>Layer 1</title>
  <g stroke="null" id="svg_7">
   <g stroke="null" transform="matrix(10.7090619301142,0,0,10.7090619301142,-14.67533150228101,-146.81133998903104) " id="svg_5">
    <path stroke="null" fill="#00d8ff" id="svg_6" d="m11.25469,32.996043c-5.406,0 -9.789,4.383 -9.789,9.79c0,5.407 4.383,9.789 9.789,9.789c3.948,0 7.342,-2.342 8.89,-5.709l2.326,1.793c0,0 17.091,0.122 18.029,-0.408c0,0 -2.121,-5.792 0.571,-8.24c0.284,-0.258 0.64,-0.552 1.032,-0.864c-0.451,1.125 -0.706,2.351 -0.706,3.638c0,5.407 4.383,9.789 9.789,9.789c5.407,0 9.789,-4.383 9.789,-9.789c0,-5.407 -4.383,-9.789 -9.789,-9.789c-0.088,0 -0.173,0.011 -0.261,0.013c0.707,-0.459 1.158,-0.747 1.158,-0.747l-0.734,-0.653c0,0 2.121,-0.489 1.632,-1.55s-5.629,-7.424 -5.629,-7.424s0.911,-1.958 -0.972,-3.345l-0.904,1.958c0,0 -2.305,-1.591 -3.222,-1.285c-0.918,0.306 -2.294,0.459 -2.723,1.132l-0.428,0.398c0,0 -0.122,0.704 0.581,1.744c0,0 7.067,2.172 7.403,3.763c0,0 0.49,1.01 -1.621,1.254l-0.428,0.551l-1.132,0.061l-2.05,-4.681c0,0 -1.958,0.52 -2.967,1.315l0.153,0.795c0,0 -8.229,-5.598 -15.969,2.692c0,0 -5.721,1.652 -9.728,-3.426c0,0 -0.061,-1.652 -9.728,-1.346l0.673,0.704c0,0 -0.673,0.061 -0.948,0.489c-0.275,0.428 0.153,0.887 2.356,0.887c0,0 4.987,5.69 8.811,5.354l5.445,2.631l2.417,4.13c0,0 0.004,0.354 0.029,0.898c-0.561,0.119 -1.19,0.252 -1.857,0.393c-1.294,-3.893 -4.959,-6.705 -9.288,-6.705zm39.932,3c3.744,0 6.789,3.046 6.789,6.789c0,3.744 -3.046,6.789 -6.789,6.789c-3.744,0 -6.789,-3.046 -6.789,-6.789c0,-3.743 3.045,-6.789 6.789,-6.789zm-39.932,13.579c-3.743,0 -6.789,-3.046 -6.789,-6.789c0,-3.744 3.046,-6.789 6.789,-6.789c2.878,0 5.337,1.803 6.323,4.336c-3.6,0.766 -7.173,1.528 -7.173,1.528l0.461,2.538l7.049,-0.311c-0.607,3.122 -3.361,5.487 -6.66,5.487zm11.758,-5.713c0.2,0.68 0.461,1.22 0.804,1.452l-3.146,0.123c0.135,-0.482 0.237,-0.977 0.298,-1.486l2.044,-0.089z"/>
   </g>
  </g>
 </g>
</svg>